<svg id="Capa_1" enable-background="new 0 0 512 512" height="512" viewBox="0 0 512 512" width="512" xmlns="http://www.w3.org/2000/svg"><g><path d="m512 207.011-73.768-73.685-20.766 20.743v-59.065l-94.805-95.004h-322.661v512h417.466v-210.562zm-265.543 160.302 31.293 31.257-13.397 13.382h-31.293v-31.257zm52.529 10.045-31.292-31.258 109.094-108.971 31.293 31.258zm170.539-170.347-40.208 40.163-31.293-31.258 40.208-40.163zm-138.082-155.715 34.929 35.002h-34.929zm55.989 430.704h-357.398v-452h271.376v86.298h86.023v67.771l-184.407 184.199v73.684h73.767l110.639-110.514z"/><path d="m59.59 146.298h178.201v30h-178.201z"/><path d="m59.59 86.298h138.156v30h-138.156z"/></g></svg>