<?xml version="1.0" encoding="iso-8859-1"?>
<!-- Generator: Adobe Illustrator 19.0.0, SVG Export Plug-In . SVG Version: 6.00 Build 0)  -->
<svg version="1.1" id="Layer_1" xmlns="http://www.w3.org/2000/svg" xmlns:xlink="http://www.w3.org/1999/xlink" x="0px" y="0px"
	 viewBox="0 0 454.072 454.072" style="enable-background:new 0 0 454.072 454.072;" xml:space="preserve">
<g id="XMLID_7_">
	<g>
		<g>
			<path d="M364.639,0H192.671c-21.836,0-39.601,17.765-39.601,39.601v49.817h27.408V39.601c0-6.723,5.47-12.193,12.193-12.193
				H364.64c6.723,0,12.193,5.47,12.193,12.193v265.335c0,6.723-5.47,12.192-12.193,12.192h-40.085v27.408h40.085
				c21.836,0,39.6-17.765,39.6-39.6V39.601C404.239,17.765,386.475,0,364.639,0z"/>
			<path d="M261.401,109.536H89.432c-21.836,0-39.6,17.765-39.6,39.601v265.334c0,21.836,17.764,39.601,39.6,39.601h171.969
				c21.836,0,39.601-17.765,39.601-39.601V149.137C301.002,127.301,283.237,109.536,261.401,109.536z M273.594,414.471
				L273.594,414.471c-0.001,6.723-5.471,12.193-12.194,12.193H89.432c-6.723,0-12.193-5.47-12.193-12.193V149.137
				c0-6.723,5.47-12.193,12.193-12.193h171.969c6.723,0,12.193,5.47,12.193,12.193V414.471z"/>
		</g>
	</g>
</g>
<g>
</g>
<g>
</g>
<g>
</g>
<g>
</g>
<g>
</g>
<g>
</g>
<g>
</g>
<g>
</g>
<g>
</g>
<g>
</g>
<g>
</g>
<g>
</g>
<g>
</g>
<g>
</g>
<g>
</g>
</svg>
