<?xml version="1.0" encoding="UTF-8" standalone="no"?>
<!-- Generator: Adobe Illustrator 16.0.0, SVG Export Plug-In . SVG Version: 6.00 Build 0)  -->

<svg
   xmlns:dc="http://purl.org/dc/elements/1.1/"
   xmlns:cc="http://creativecommons.org/ns#"
   xmlns:rdf="http://www.w3.org/1999/02/22-rdf-syntax-ns#"
   xmlns:svg="http://www.w3.org/2000/svg"
   xmlns="http://www.w3.org/2000/svg"
   xmlns:sodipodi="http://sodipodi.sourceforge.net/DTD/sodipodi-0.dtd"
   xmlns:inkscape="http://www.inkscape.org/namespaces/inkscape"
   version="1.1"
   id="Capa_1"
   x="0px"
   y="0px"
   width="24"
   height="24"
   viewBox="0 0 47 47"
   xml:space="preserve"
   inkscape:version="0.48.5 r10040"
   sodipodi:docname="tlsn3_darkblue.svg"
   inkscape:export-filename="/home/adam/DevRepos/tlsnjs/tlsnjs/tlsn3e-hq1.png"
   inkscape:export-xdpi="205.61"
   inkscape:export-ydpi="205.61"><metadata
     id="metadata54"><rdf:RDF><cc:Work
         rdf:about=""><dc:format>image/svg+xml</dc:format><dc:type
           rdf:resource="http://purl.org/dc/dcmitype/StillImage" /><dc:title></dc:title></cc:Work></rdf:RDF></metadata><defs
     id="defs52" /><sodipodi:namedview
     pagecolor="#ffffff"
     bordercolor="#666666"
     borderopacity="1"
     objecttolerance="10"
     gridtolerance="10"
     guidetolerance="10"
     inkscape:pageopacity="0"
     inkscape:pageshadow="2"
     inkscape:window-width="1295"
     inkscape:window-height="744"
     id="namedview50"
     showgrid="false"
     inkscape:zoom="10.042553"
     inkscape:cx="21.010593"
     inkscape:cy="24.993644"
     inkscape:window-x="1985"
     inkscape:window-y="24"
     inkscape:window-maximized="1"
     inkscape:current-layer="Capa_1" /><g
     id="g3"><g
       id="Layer_1_155_"><g
         id="g6"><path
           d="M 34.314,35.93 32.172576,38.305186 32.073,42.727 l -27.772,0 0,-38.454 27.772,0 0,8.442 4.273,-7.401 0,-3.178 C 36.346,0.956 35.389,0 34.209,0 L 2.164,0 C 0.984,0 0.028,0.957 0.028,2.136 l 0,42.729 c 0,1.18 0.956,2.136 2.136,2.136 l 32.045,0 c 1.181,0 2.138,-0.957 2.138,-2.136 l 0,-11.775 -1.021,1.766 c -0.249,0.431 -0.599,0.802 -1.012,1.074 z"
           id="path14"
           style="fill:#466bbf;fill-opacity:1"
           inkscape:connector-curvature="0"
           sodipodi:nodetypes="ccccccccssssssssccc" /><path
           d="M 46.947,9.894 C 46.903,9.702 46.452,7.976 43.734,6.406 41.016,4.837 39.296,5.309 39.106,5.368 38.851,5.449 38.636,5.621 38.502,5.853 L 25.15,28.979 c -0.083,0.145 -0.132,0.306 -0.142,0.472 l -0.5,8.345 c -0.024,0.404 0.182,0.786 0.531,0.989 0.352,0.202 0.785,0.188 1.123,-0.033 l 6.977,-4.606 c 0.139,-0.09 0.254,-0.213 0.337,-0.356 L 46.829,10.66 c 0.134,-0.232 0.175,-0.504 0.118,-0.766 z M 28.854,35.055 c -0.355,-0.287 -0.758,-0.558 -1.191,-0.809 -0.435,-0.251 -0.871,-0.462 -1.297,-0.628 l 0.149,-2.502 c 0.557,0.073 1.383,0.299 2.432,0.903 1.048,0.605 1.655,1.209 1.999,1.654 l -2.092,1.382 z"
           id="path16"
           style="fill:#476bbf;fill-opacity:1"
           inkscape:connector-curvature="0" /><path
           d="m 14.922,38.534 c 0.07,0.429 0.565,0.562 0.896,0.7 0.32,0.135 0.702,-0.121 0.968,-0.25 1.63,-0.793 3.838,0.139 5.584,0.139 1.033,0 1.033,-1.602 0,-1.602 -2.036,0 -3.73,-0.515 -5.748,-0.182 0,-0.117 -0.043,-0.275 -0.169,-0.49 -0.377,-0.645 -0.857,-0.828 -1.338,-0.75 -0.032,-0.076 -0.063,-0.152 -0.108,-0.229 -0.126,-0.206 -0.302,-0.309 -0.5,-0.352 0.563,-0.984 0.926,-2.025 0.557,-2.867 -0.113,-0.256 -0.434,-0.387 -0.692,-0.397 -1.07,-0.04 -1.988,1.083 -2.676,1.757 -1.721,1.687 -3.237,3.602 -4.704,5.508 -0.63,0.819 0.763,1.615 1.383,0.81 1.3,-1.688 2.677,-3.327 4.159,-4.86 -0.357,0.586 -0.736,1.161 -1.135,1.715 -0.57,0.881 0.791,1.631 1.383,0.809 0.141,-0.215 0.32,-0.37 0.516,-0.503 -0.039,0.099 -0.079,0.196 -0.119,0.296 0.002,0 0.004,10e-4 0.006,0.002 -0.031,0.064 -0.062,0.128 -0.087,0.189 -0.358,0.897 0.979,1.308 1.465,0.616 0.123,-0.174 0.237,-0.36 0.34,-0.555 -0.007,0.134 -0.01,0.314 0.019,0.496 z"
           id="path18"
           style="fill:#466bbf;fill-opacity:1"
           inkscape:export-filename="/home/adam/DevRepos/tlsnjs/tlsnjs/tlsn3d.png"
           inkscape:export-xdpi="256.80661"
           inkscape:export-ydpi="256.80661"
           inkscape:connector-curvature="0" /></g></g></g><g
     id="g20" /><g
     id="g22" /><g
     id="g24" /><g
     id="g26" /><g
     id="g28" /><g
     id="g30" /><g
     id="g32" /><g
     id="g34" /><g
     id="g36" /><g
     id="g38" /><g
     id="g40" /><g
     id="g42" /><g
     id="g44" /><g
     id="g46" /><g
     id="g48" /><g
     id="g3919"
     transform="matrix(0.05766253,0,0,0.04928147,-29.435159,4.0263714)"><g
       id="g3879"><path
         id="path3881"
         d="m 992.94185,241.40701 c -5.331,-5.33 -11.8,-7.993 -19.417,-7.993 l -9.131,0 0,-54.821 c 0,-35.022 -12.559,-65.09299 -37.685,-90.217989 -25.124,-25.12601 -55.192,-37.68901 -90.219,-37.68901 -35.026,0 -65.1,12.563 -90.222,37.68801 -25.126,25.125999 -37.685,55.195989 -37.685,90.218989 l 0,54.821 -9.135,0 c -7.611,0 -14.084,2.663 -19.414,7.993 -5.33,5.326 -7.994,11.799 -7.994,19.417 l 0,164.452 c 0,7.611 2.665,14.086 7.994,19.417 5.33,5.325 11.80323,8.05974 19.414,7.991 l 223.71054,-2.02056 c 7.61678,-0.0688 21.54451,-22.74167 31.65213,-46.38168 10.10762,-23.64002 46.13238,-93.14438 46.13238,-100.75538 l 0,-42.70538 c 0,-7.612 -2.66902,-14.084 -8.00105,-19.414 z m -83.363,-7.993 -146.178,0 0,-54.821 c 0,-20.175 7.139,-37.402 21.414,-51.675 14.277,-14.27499 31.501,-21.41099 51.678,-21.41099 20.179,0 37.399,7.135 51.677,21.41099 14.271,14.272 21.409,31.5 21.409,51.675 z"
         inkscape:connector-curvature="0"
         style="fill:#466bbf;fill-opacity:1"
         sodipodi:nodetypes="cscscscscscsscsscsccccssscsc" /></g><g
       id="g3883" /><g
       id="g3885" /><g
       id="g3887" /><g
       id="g3889" /><g
       id="g3891" /><g
       id="g3893" /><g
       id="g3895" /><g
       id="g3897" /><g
       id="g3899" /><g
       id="g3901" /><g
       id="g3903" /><g
       id="g3905" /><g
       id="g3907" /><g
       id="g3909" /><g
       id="g3911" /></g></svg>